<svg id="svg" version="1.1" xmlns="http://www.w3.org/2000/svg" xmlns:xlink="http://www.w3.org/1999/xlink" width="400" height="370.81545064377684" viewBox="0, 0, 400,370.81545064377684"><g id="svgg"><path id="path0" d="M170.315 73.949 C 167.013 75.203,164.003 77.943,162.282 81.262 L 161.224 83.302 161.039 100.186 C 160.894 113.374,160.752 117.061,160.390 117.032 C 160.135 117.011,159.605 116.969,159.212 116.939 C 158.820 116.908,158.002 116.466,157.396 115.955 C 156.790 115.445,156.080 115.028,155.820 115.028 C 155.559 115.028,155.082 114.791,154.760 114.501 C 154.438 114.212,153.006 113.360,151.577 112.608 C 150.148 111.856,148.729 111.019,148.422 110.748 C 148.116 110.477,147.448 110.066,146.938 109.833 C 146.428 109.601,145.176 108.925,144.156 108.331 C 143.135 107.738,141.716 106.956,141.002 106.594 C 140.288 106.233,139.536 105.799,139.332 105.631 C 138.830 105.216,136.465 103.835,133.766 102.380 C 127.745 99.134,116.841 102.285,115.177 107.752 C 115.047 108.182,114.614 109.259,114.217 110.144 C 113.331 112.120,113.212 117.615,114.029 118.877 C 114.310 119.311,114.643 120.083,114.770 120.594 C 115.236 122.467,118.539 125.959,121.093 127.278 C 123.945 128.750,125.094 129.427,125.751 130.021 C 126.110 130.346,126.530 130.612,126.685 130.612 C 126.947 130.612,129.989 132.305,133.153 134.212 C 133.899 134.661,135.093 135.328,135.807 135.696 C 136.521 136.063,137.239 136.572,137.402 136.827 C 137.566 137.083,137.900 137.291,138.145 137.292 C 138.390 137.292,139.982 138.120,141.683 139.132 C 143.385 140.144,145.096 141.074,145.487 141.198 C 145.877 141.322,146.197 141.561,146.197 141.729 C 146.197 141.897,146.823 142.311,147.588 142.648 C 148.901 143.227,151.272 144.577,152.505 145.447 C 153.307 146.014,155.438 147.154,157.050 147.878 C 157.815 148.222,158.442 148.632,158.442 148.789 C 158.442 148.946,158.957 149.288,159.586 149.549 C 160.216 149.810,160.926 150.206,161.163 150.429 C 161.401 150.652,162.180 151.126,162.894 151.482 C 164.178 152.121,164.429 152.267,166.976 153.850 C 167.690 154.294,168.692 154.770,169.202 154.909 C 169.712 155.048,170.699 155.419,171.394 155.733 C 172.779 156.360,177.676 156.265,178.558 155.595 C 178.820 155.395,179.720 155.037,180.557 154.798 C 182.278 154.306,186.823 150.387,187.212 149.058 C 187.345 148.607,187.813 147.486,188.253 146.568 C 189.495 143.978,189.518 85.304,188.278 82.931 C 187.852 82.115,187.391 80.993,187.254 80.438 C 187.015 79.472,183.144 75.325,182.480 75.325 C 182.303 75.325,181.666 74.960,181.062 74.514 C 179.683 73.494,172.509 73.117,170.315 73.949 M221.000 73.920 C 220.408 74.135,219.322 74.709,218.588 75.196 C 217.855 75.682,216.941 76.286,216.558 76.537 C 215.558 77.194,212.616 81.295,212.616 82.033 C 212.616 82.375,212.365 83.255,212.059 83.987 C 211.581 85.133,211.504 89.315,211.509 113.810 L 211.515 142.301 212.375 145.497 C 213.328 149.038,213.405 149.166,216.377 152.138 C 219.736 155.497,226.403 157.223,229.721 155.592 C 230.211 155.351,231.250 154.958,232.030 154.719 C 232.809 154.481,233.537 154.052,233.646 153.766 C 233.756 153.480,234.036 153.247,234.270 153.246 C 234.503 153.246,236.032 152.453,237.666 151.484 C 239.301 150.515,241.055 149.505,241.563 149.240 C 242.071 148.975,243.154 148.352,243.970 147.856 C 244.787 147.360,245.872 146.751,246.382 146.503 C 246.892 146.256,247.560 145.852,247.866 145.606 C 248.411 145.168,250.093 144.179,252.690 142.769 C 253.404 142.381,254.598 141.699,255.342 141.254 C 257.624 139.890,263.055 136.771,264.307 136.105 C 264.959 135.759,265.704 135.290,265.964 135.062 C 266.223 134.835,266.975 134.403,267.634 134.102 C 268.292 133.801,269.750 132.975,270.872 132.267 C 271.994 131.558,273.414 130.728,274.026 130.422 C 274.638 130.115,275.807 129.460,276.623 128.966 C 277.440 128.471,278.715 127.745,279.457 127.353 C 289.805 121.878,289.777 107.661,279.406 102.031 C 277.149 100.805,269.403 100.705,267.656 101.879 C 267.078 102.267,266.020 102.881,265.306 103.243 C 264.592 103.605,263.340 104.310,262.523 104.810 C 261.707 105.310,260.329 106.055,259.462 106.465 C 258.595 106.874,257.885 107.364,257.885 107.553 C 257.885 107.742,257.498 107.994,257.026 108.113 C 256.553 108.232,255.776 108.667,255.299 109.081 C 254.822 109.495,254.230 109.833,253.982 109.833 C 253.735 109.833,253.134 110.146,252.647 110.528 C 251.814 111.182,247.306 113.753,245.269 114.737 C 244.759 114.983,243.859 115.576,243.269 116.053 C 242.544 116.641,241.824 116.886,241.043 116.810 L 239.889 116.698 239.691 100.928 C 239.470 83.239,239.352 82.261,237.063 79.163 C 233.449 74.271,226.381 71.964,221.000 73.920 M98.887 144.919 C 98.071 145.244,96.812 145.707,96.089 145.946 C 95.367 146.186,94.486 146.633,94.131 146.939 C 93.032 147.888,91.336 149.671,90.426 150.835 C 89.421 152.119,87.755 157.990,88.036 159.256 C 88.775 162.590,89.602 165.047,90.204 165.701 C 90.592 166.122,90.909 166.626,90.909 166.820 C 90.909 167.222,93.772 169.787,95.062 170.541 C 95.533 170.816,96.586 171.393,97.403 171.822 C 98.856 172.588,100.670 173.650,102.448 174.776 C 104.408 176.018,104.881 176.290,106.308 176.994 C 107.124 177.397,108.043 177.885,108.349 178.079 C 108.655 178.272,109.991 179.067,111.317 179.846 C 112.644 180.625,113.896 181.396,114.100 181.560 C 114.464 181.852,115.787 182.585,118.367 183.926 C 121.006 185.297,121.482 186.435,119.759 187.250 C 119.096 187.563,117.718 188.303,116.698 188.893 C 115.677 189.483,114.425 190.168,113.915 190.416 C 113.404 190.663,112.653 191.146,112.245 191.488 C 111.532 192.087,111.085 192.346,107.792 194.063 C 106.976 194.489,105.640 195.241,104.824 195.735 C 104.007 196.229,102.672 196.995,101.855 197.439 C 101.039 197.882,100.288 198.347,100.186 198.473 C 100.083 198.598,99.416 199.006,98.701 199.379 C 97.987 199.752,96.741 200.409,95.933 200.839 C 94.623 201.535,91.613 204.301,90.204 206.103 C 86.717 210.561,87.947 219.397,92.664 223.774 C 96.161 227.020,105.212 228.361,108.130 226.067 C 108.713 225.608,109.406 225.232,109.669 225.232 C 109.932 225.232,110.643 224.814,111.250 224.304 C 111.856 223.794,112.552 223.377,112.797 223.377 C 113.041 223.377,113.666 223.043,114.184 222.635 C 114.703 222.226,115.335 221.892,115.589 221.892 C 115.843 221.892,116.246 221.656,116.486 221.368 C 116.725 221.079,117.622 220.489,118.479 220.057 C 119.336 219.624,120.826 218.817,121.789 218.262 C 126.584 215.503,132.668 211.970,133.885 211.238 C 134.636 210.786,135.751 210.145,136.364 209.814 C 137.902 208.982,142.699 206.195,145.269 204.640 C 146.085 204.146,147.421 203.399,148.237 202.980 C 149.054 202.561,150.473 201.724,151.391 201.119 C 152.310 200.515,153.687 199.747,154.453 199.413 C 155.218 199.079,155.844 198.669,155.844 198.500 C 155.844 198.332,156.220 198.082,156.679 197.945 C 157.540 197.688,161.410 194.136,161.410 193.604 C 161.410 193.440,161.862 192.622,162.414 191.788 C 163.924 189.505,163.915 182.239,162.399 180.051 C 161.855 179.266,161.410 178.438,161.410 178.210 C 161.410 177.654,157.425 174.111,156.030 173.426 C 154.812 172.829,152.931 171.758,148.609 169.202 C 144.803 166.952,142.523 165.642,141.187 164.938 C 140.575 164.615,139.323 163.858,138.404 163.255 C 137.486 162.653,136.067 161.817,135.250 161.398 C 134.434 160.979,133.098 160.227,132.282 159.728 C 131.466 159.228,130.380 158.608,129.870 158.351 C 129.079 157.951,125.114 155.621,122.635 154.099 C 122.226 153.848,121.224 153.293,120.408 152.866 C 117.645 151.418,116.463 150.720,115.837 150.164 C 115.494 149.859,114.629 149.346,113.915 149.024 C 113.200 148.702,112.282 148.230,111.874 147.975 C 108.187 145.675,105.598 144.683,102.783 144.492 C 101.114 144.379,99.914 144.510,98.887 144.919 M293.878 145.371 C 292.551 145.927,291.053 146.675,290.548 147.032 C 290.044 147.389,289.438 147.681,289.202 147.681 C 288.966 147.681,288.576 147.919,288.335 148.210 C 288.093 148.501,287.196 149.103,286.341 149.548 C 283.717 150.913,282.260 151.745,280.519 152.870 C 279.601 153.464,278.182 154.293,277.365 154.712 C 276.549 155.132,275.213 155.889,274.397 156.394 C 273.581 156.899,272.287 157.592,271.521 157.933 C 270.756 158.275,270.130 158.678,270.130 158.829 C 270.130 158.980,269.504 159.382,268.738 159.722 C 267.973 160.062,266.679 160.742,265.863 161.233 C 265.046 161.724,263.563 162.591,262.566 163.159 C 260.179 164.521,258.734 165.362,257.088 166.350 C 256.344 166.796,254.291 167.996,252.525 169.017 C 250.760 170.037,248.530 171.330,247.571 171.889 C 246.611 172.449,245.319 173.146,244.699 173.438 C 242.649 174.405,239.037 178.301,238.570 180.049 C 238.337 180.920,237.977 181.840,237.769 182.093 C 235.286 185.122,239.125 195.241,243.731 197.811 C 244.475 198.226,245.693 198.930,246.439 199.375 C 250.071 201.547,252.660 202.968,252.983 202.968 C 253.180 202.968,253.557 203.229,253.821 203.546 C 254.085 203.864,254.815 204.371,255.444 204.671 C 256.765 205.304,258.775 206.458,261.410 208.096 C 262.430 208.731,263.844 209.513,264.551 209.834 C 265.258 210.156,265.926 210.537,266.035 210.682 C 266.144 210.827,266.818 211.241,267.532 211.601 C 268.247 211.961,269.624 212.749,270.593 213.352 C 271.562 213.955,273.474 215.042,274.842 215.768 C 276.209 216.494,277.587 217.302,277.904 217.563 C 278.220 217.825,278.896 218.234,279.406 218.472 C 279.917 218.711,281.169 219.417,282.189 220.042 C 283.210 220.666,284.559 221.412,285.187 221.699 C 285.816 221.986,286.546 222.481,286.810 222.799 C 287.074 223.117,287.580 223.377,287.936 223.377 C 288.292 223.377,288.981 223.679,289.468 224.049 C 295.411 228.564,303.801 228.136,308.646 223.072 C 314.711 216.732,313.805 207.126,306.663 202.048 C 305.653 201.330,304.694 200.742,304.532 200.742 C 304.370 200.742,303.743 200.408,303.139 200.000 C 302.535 199.592,301.578 198.947,301.013 198.568 C 300.448 198.188,299.571 197.752,299.065 197.598 C 298.559 197.443,297.811 197.024,297.403 196.666 C 296.994 196.308,296.160 195.748,295.547 195.423 C 294.935 195.098,293.933 194.567,293.321 194.242 C 292.709 193.918,291.289 193.084,290.167 192.390 C 289.045 191.695,287.500 190.851,286.735 190.514 C 285.969 190.177,285.343 189.765,285.343 189.599 C 285.343 189.433,284.759 189.104,284.045 188.868 C 283.330 188.633,282.746 188.311,282.746 188.154 C 282.746 187.996,282.075 187.565,281.256 187.196 C 279.089 186.219,280.203 184.911,285.529 182.177 C 286.345 181.758,287.624 181.047,288.371 180.596 C 291.872 178.486,294.141 177.157,294.991 176.722 C 295.501 176.460,296.586 175.836,297.403 175.335 C 298.219 174.833,299.388 174.168,300.000 173.856 C 300.612 173.544,302.032 172.706,303.154 171.994 C 304.276 171.282,305.538 170.546,305.958 170.358 C 307.561 169.642,310.277 166.532,311.434 164.091 C 316.598 153.189,304.922 140.740,293.878 145.371 M195.474 160.575 C 195.139 160.932,190.405 165.649,184.954 171.058 C 174.145 181.783,174.397 181.425,174.397 186.002 C 174.397 190.347,174.494 190.483,185.231 201.235 C 196.602 212.623,195.538 211.881,200.439 211.848 C 205.648 211.812,204.378 212.631,213.423 203.473 C 216.418 200.440,220.259 196.599,221.958 194.936 C 227.024 189.979,226.779 190.464,226.646 185.647 L 226.531 181.498 221.336 176.234 C 218.479 173.340,215.557 170.418,214.842 169.742 C 214.128 169.065,211.623 166.581,209.276 164.221 L 205.009 159.930 200.546 159.928 C 196.773 159.926,195.989 160.026,195.474 160.575 M201.916 176.989 C 202.255 176.992,203.507 177.962,204.699 179.145 C 211.295 185.695,211.336 186.293,205.573 191.866 C 200.466 196.804,200.052 196.761,194.214 190.681 C 189.790 186.074,189.802 185.823,194.710 180.706 C 198.130 177.139,199.008 176.560,200.557 176.847 C 200.965 176.922,201.576 176.987,201.916 176.989 M170.875 216.392 C 169.856 216.586,168.771 216.961,168.463 217.226 C 168.155 217.491,166.770 218.357,165.384 219.150 C 163.998 219.944,162.078 221.045,161.117 221.598 C 160.156 222.150,158.868 222.874,158.256 223.207 C 155.591 224.656,154.849 225.096,153.746 225.882 C 153.102 226.341,152.330 226.716,152.029 226.716 C 151.728 226.716,151.266 226.976,151.003 227.294 C 150.739 227.612,149.931 228.119,149.208 228.422 C 148.484 228.724,147.803 229.103,147.694 229.264 C 147.585 229.425,146.994 229.814,146.382 230.127 C 144.281 231.202,138.961 234.291,138.776 234.544 C 138.673 234.682,138.006 235.074,137.291 235.414 C 136.577 235.754,135.492 236.324,134.879 236.680 C 133.617 237.414,130.102 239.490,128.074 240.698 C 127.327 241.143,126.215 241.766,125.603 242.083 C 119.661 245.152,115.790 248.332,114.978 250.808 C 114.740 251.537,114.291 252.522,113.982 252.998 C 113.027 254.466,113.272 259.804,114.420 262.523 C 117.164 269.023,125.314 272.835,131.398 270.465 C 134.058 269.428,134.618 269.161,136.364 268.098 C 137.180 267.600,138.516 266.854,139.332 266.440 C 140.904 265.642,141.620 265.213,143.414 263.996 C 144.026 263.580,144.944 263.028,145.455 262.768 C 146.396 262.288,147.335 261.754,153.061 258.442 C 154.825 257.421,156.715 256.352,157.262 256.065 C 157.809 255.779,158.353 255.396,158.472 255.216 C 158.591 255.035,159.176 254.852,159.771 254.809 L 160.853 254.731 161.047 271.614 L 161.240 288.497 162.419 290.724 C 165.692 296.904,173.707 300.612,178.469 298.150 C 179.066 297.841,179.859 297.588,180.230 297.588 C 182.186 297.588,186.387 293.363,187.978 289.796 L 189.054 287.384 189.054 257.143 L 189.054 226.902 187.837 224.381 C 184.620 217.717,178.656 214.908,170.875 216.392 M222.855 216.365 C 219.521 217.041,216.115 219.495,214.056 222.703 C 211.937 226.005,211.875 226.989,211.874 257.090 C 211.874 286.269,212.064 289.731,213.776 291.705 C 214.158 292.146,214.471 292.635,214.471 292.791 C 214.471 293.070,216.757 295.434,217.985 296.425 C 218.723 297.021,221.820 298.238,223.933 298.764 C 227.399 299.626,232.019 298.060,235.178 294.952 C 240.106 290.104,240.074 290.261,240.074 270.767 C 240.074 253.933,240.130 253.486,242.033 255.162 C 242.486 255.561,243.275 256.095,243.785 256.348 C 244.295 256.601,245.323 257.175,246.069 257.625 C 249.230 259.528,253.054 261.596,253.415 261.596 C 253.628 261.596,253.803 261.742,253.803 261.922 C 253.803 262.101,254.346 262.462,255.009 262.724 C 255.673 262.986,256.549 263.496,256.957 263.857 C 257.365 264.219,258.117 264.692,258.627 264.910 C 259.137 265.127,260.390 265.799,261.410 266.404 C 262.430 267.008,263.683 267.709,264.193 267.960 C 264.703 268.212,265.371 268.618,265.677 268.863 C 268.693 271.273,274.529 271.879,278.772 270.223 C 281.524 269.149,285.343 265.996,285.343 264.797 C 285.343 264.465,285.506 264.193,285.704 264.193 C 287.508 264.193,287.650 254.063,285.890 251.004 C 284.023 247.758,279.676 243.795,277.976 243.787 C 277.699 243.786,276.977 243.367,276.370 242.857 C 275.764 242.347,275.056 241.929,274.797 241.929 C 274.538 241.929,274.024 241.596,273.655 241.187 C 273.286 240.779,272.696 240.445,272.344 240.445 C 271.993 240.445,271.507 240.207,271.266 239.916 C 271.025 239.625,270.127 239.023,269.273 238.579 C 267.475 237.643,265.693 236.650,263.752 235.503 C 259.562 233.026,254.175 230.056,253.872 230.056 C 253.680 230.056,253.304 229.792,253.036 229.469 C 252.768 229.146,251.955 228.568,251.228 228.185 C 250.502 227.801,249.406 227.222,248.794 226.897 C 248.182 226.572,246.763 225.737,245.640 225.043 C 244.518 224.348,242.973 223.504,242.208 223.167 C 241.442 222.830,240.816 222.405,240.816 222.223 C 240.816 222.041,240.638 221.892,240.419 221.892 C 240.201 221.892,238.746 221.117,237.186 220.170 C 235.625 219.223,233.842 218.210,233.223 217.918 C 232.603 217.627,231.679 217.160,231.168 216.881 C 229.928 216.204,225.121 215.905,222.855 216.365 " stroke="none" fill="#29b3ea" fill-rule="evenodd"></path><path id="path1" d="M0.000 185.529 L 0.000 371.058 200.000 371.058 L 400.000 371.058 400.000 185.529 L 400.000 0.000 200.000 0.000 L 0.000 0.000 0.000 185.529 M181.062 74.514 C 181.666 74.960,182.303 75.325,182.480 75.325 C 183.144 75.325,187.015 79.472,187.254 80.438 C 187.391 80.993,187.852 82.115,188.278 82.931 C 189.518 85.304,189.495 143.978,188.253 146.568 C 187.813 147.486,187.345 148.607,187.212 149.058 C 186.823 150.387,182.278 154.306,180.557 154.798 C 179.720 155.037,178.820 155.395,178.558 155.595 C 177.676 156.265,172.779 156.360,171.394 155.733 C 170.699 155.419,169.712 155.048,169.202 154.909 C 168.692 154.770,167.690 154.294,166.976 153.850 C 164.429 152.267,164.178 152.121,162.894 151.482 C 162.180 151.126,161.401 150.652,161.163 150.429 C 160.926 150.206,160.216 149.810,159.586 149.549 C 158.957 149.288,158.442 148.946,158.442 148.789 C 158.442 148.632,157.815 148.222,157.050 147.878 C 155.438 147.154,153.307 146.014,152.505 145.447 C 151.272 144.577,148.901 143.227,147.588 142.648 C 146.823 142.311,146.197 141.897,146.197 141.729 C 146.197 141.561,145.877 141.322,145.487 141.198 C 145.096 141.074,143.385 140.144,141.683 139.132 C 139.982 138.120,138.390 137.292,138.145 137.292 C 137.900 137.291,137.566 137.083,137.402 136.827 C 137.239 136.572,136.521 136.063,135.807 135.696 C 135.093 135.328,133.899 134.661,133.153 134.212 C 129.989 132.305,126.947 130.612,126.685 130.612 C 126.530 130.612,126.110 130.346,125.751 130.021 C 125.094 129.427,123.945 128.750,121.093 127.278 C 118.539 125.959,115.236 122.467,114.770 120.594 C 114.643 120.083,114.310 119.311,114.029 118.877 C 113.212 117.615,113.331 112.120,114.217 110.144 C 114.614 109.259,115.047 108.182,115.177 107.752 C 116.841 102.285,127.745 99.134,133.766 102.380 C 136.465 103.835,138.830 105.216,139.332 105.631 C 139.536 105.799,140.288 106.233,141.002 106.594 C 141.716 106.956,143.135 107.738,144.156 108.331 C 145.176 108.925,146.428 109.601,146.938 109.833 C 147.448 110.066,148.116 110.477,148.422 110.748 C 148.729 111.019,150.148 111.856,151.577 112.608 C 153.006 113.360,154.438 114.212,154.760 114.501 C 155.082 114.791,155.559 115.028,155.820 115.028 C 156.080 115.028,156.790 115.445,157.396 115.955 C 158.002 116.466,158.820 116.908,159.212 116.939 C 159.605 116.969,160.135 117.011,160.390 117.032 C 160.752 117.061,160.894 113.374,161.039 100.186 L 161.224 83.302 162.282 81.262 C 164.003 77.943,167.013 75.203,170.315 73.949 C 172.509 73.117,179.683 73.494,181.062 74.514 M231.392 74.430 C 238.974 78.439,239.428 79.890,239.691 100.928 L 239.889 116.698 241.043 116.810 C 241.824 116.886,242.544 116.641,243.269 116.053 C 243.859 115.576,244.759 114.983,245.269 114.737 C 247.306 113.753,251.814 111.182,252.647 110.528 C 253.134 110.146,253.735 109.833,253.982 109.833 C 254.230 109.833,254.822 109.495,255.299 109.081 C 255.776 108.667,256.553 108.232,257.026 108.113 C 257.498 107.994,257.885 107.742,257.885 107.553 C 257.885 107.364,258.595 106.874,259.462 106.465 C 260.329 106.055,261.707 105.310,262.523 104.810 C 263.340 104.310,264.592 103.605,265.306 103.243 C 266.020 102.881,267.078 102.267,267.656 101.879 C 269.403 100.705,277.149 100.805,279.406 102.031 C 287.852 106.616,289.897 118.218,283.348 124.397 C 281.475 126.164,280.951 126.562,279.457 127.353 C 278.715 127.745,277.440 128.471,276.623 128.966 C 275.807 129.460,274.638 130.115,274.026 130.422 C 273.414 130.728,271.994 131.558,270.872 132.267 C 269.750 132.975,268.292 133.801,267.634 134.102 C 266.975 134.403,266.223 134.835,265.964 135.062 C 265.704 135.290,264.959 135.759,264.307 136.105 C 263.055 136.771,257.624 139.890,255.342 141.254 C 254.598 141.699,253.404 142.381,252.690 142.769 C 250.093 144.179,248.411 145.168,247.866 145.606 C 247.560 145.852,246.892 146.256,246.382 146.503 C 245.872 146.751,244.787 147.360,243.970 147.856 C 243.154 148.352,242.071 148.975,241.563 149.240 C 241.055 149.505,239.301 150.515,237.666 151.484 C 236.032 152.453,234.503 153.246,234.270 153.246 C 234.036 153.247,233.756 153.480,233.646 153.766 C 233.537 154.052,232.809 154.481,232.030 154.719 C 231.250 154.958,230.211 155.351,229.721 155.592 C 226.403 157.223,219.736 155.497,216.377 152.138 C 213.405 149.166,213.328 149.038,212.375 145.497 L 211.515 142.301 211.509 113.810 C 211.504 89.315,211.581 85.133,212.059 83.987 C 212.365 83.255,212.616 82.375,212.616 82.033 C 212.616 81.295,215.558 77.194,216.558 76.537 C 216.941 76.286,217.855 75.682,218.588 75.196 C 221.722 73.119,228.180 72.732,231.392 74.430 M107.236 145.528 C 109.127 146.337,109.918 146.755,111.874 147.975 C 112.282 148.230,113.200 148.702,113.915 149.024 C 114.629 149.346,115.494 149.859,115.837 150.164 C 116.463 150.720,117.645 151.418,120.408 152.866 C 121.224 153.293,122.226 153.848,122.635 154.099 C 125.114 155.621,129.079 157.951,129.870 158.351 C 130.380 158.608,131.466 159.228,132.282 159.728 C 133.098 160.227,134.434 160.979,135.250 161.398 C 136.067 161.817,137.486 162.653,138.404 163.255 C 139.323 163.858,140.575 164.615,141.187 164.938 C 142.523 165.642,144.803 166.952,148.609 169.202 C 152.931 171.758,154.812 172.829,156.030 173.426 C 157.425 174.111,161.410 177.654,161.410 178.210 C 161.410 178.438,161.855 179.266,162.399 180.051 C 163.915 182.239,163.924 189.505,162.414 191.788 C 161.862 192.622,161.410 193.440,161.410 193.604 C 161.410 194.136,157.540 197.688,156.679 197.945 C 156.220 198.082,155.844 198.332,155.844 198.500 C 155.844 198.669,155.218 199.079,154.453 199.413 C 153.687 199.747,152.310 200.515,151.391 201.119 C 150.473 201.724,149.054 202.561,148.237 202.980 C 147.421 203.399,146.085 204.146,145.269 204.640 C 142.699 206.195,137.902 208.982,136.364 209.814 C 135.751 210.145,134.636 210.786,133.885 211.238 C 132.668 211.970,126.584 215.503,121.789 218.262 C 120.826 218.817,119.336 219.624,118.479 220.057 C 117.622 220.489,116.725 221.079,116.486 221.368 C 116.246 221.656,115.843 221.892,115.589 221.892 C 115.335 221.892,114.703 222.226,114.184 222.635 C 113.666 223.043,113.041 223.377,112.797 223.377 C 112.552 223.377,111.856 223.794,111.250 224.304 C 110.643 224.814,109.932 225.232,109.669 225.232 C 109.406 225.232,108.713 225.608,108.130 226.067 C 105.212 228.361,96.161 227.020,92.664 223.774 C 87.947 219.397,86.717 210.561,90.204 206.103 C 91.613 204.301,94.623 201.535,95.933 200.839 C 96.741 200.409,97.987 199.752,98.701 199.379 C 99.416 199.006,100.083 198.598,100.186 198.473 C 100.288 198.347,101.039 197.882,101.855 197.439 C 102.672 196.995,104.007 196.229,104.824 195.735 C 105.640 195.241,106.976 194.489,107.792 194.063 C 111.085 192.346,111.532 192.087,112.245 191.488 C 112.653 191.146,113.404 190.663,113.915 190.416 C 114.425 190.168,115.677 189.483,116.698 188.893 C 117.718 188.303,119.096 187.563,119.759 187.250 C 121.482 186.435,121.006 185.297,118.367 183.926 C 115.787 182.585,114.464 181.852,114.100 181.560 C 113.896 181.396,112.644 180.625,111.317 179.846 C 109.991 179.067,108.655 178.272,108.349 178.079 C 108.043 177.885,107.124 177.397,106.308 176.994 C 104.881 176.290,104.408 176.018,102.448 174.776 C 100.670 173.650,98.856 172.588,97.403 171.822 C 96.586 171.393,95.533 170.816,95.062 170.541 C 93.772 169.787,90.909 167.222,90.909 166.820 C 90.909 166.626,90.592 166.122,90.204 165.701 C 89.602 165.047,88.775 162.590,88.036 159.256 C 87.755 157.990,89.421 152.119,90.426 150.835 C 91.336 149.671,93.032 147.888,94.131 146.939 C 94.486 146.633,95.367 146.186,96.089 145.946 C 96.812 145.707,98.071 145.244,98.887 144.919 C 100.886 144.123,104.581 144.393,107.236 145.528 M304.082 145.546 C 314.302 149.966,315.521 166.083,305.958 170.358 C 305.538 170.546,304.276 171.282,303.154 171.994 C 302.032 172.706,300.612 173.544,300.000 173.856 C 299.388 174.168,298.219 174.833,297.403 175.335 C 296.586 175.836,295.501 176.460,294.991 176.722 C 294.141 177.157,291.872 178.486,288.371 180.596 C 287.624 181.047,286.345 181.758,285.529 182.177 C 280.203 184.911,279.089 186.219,281.256 187.196 C 282.075 187.565,282.746 187.996,282.746 188.154 C 282.746 188.311,283.330 188.633,284.045 188.868 C 284.759 189.104,285.343 189.433,285.343 189.599 C 285.343 189.765,285.969 190.177,286.735 190.514 C 287.500 190.851,289.045 191.695,290.167 192.390 C 291.289 193.084,292.709 193.918,293.321 194.242 C 293.933 194.567,294.935 195.098,295.547 195.423 C 296.160 195.748,296.994 196.308,297.403 196.666 C 297.811 197.024,298.559 197.443,299.065 197.598 C 299.571 197.752,300.448 198.188,301.013 198.568 C 301.578 198.947,302.535 199.592,303.139 200.000 C 303.743 200.408,304.370 200.742,304.532 200.742 C 306.180 200.742,310.058 204.850,311.539 208.163 C 317.376 221.230,301.140 232.916,289.468 224.049 C 288.981 223.679,288.292 223.377,287.936 223.377 C 287.580 223.377,287.074 223.117,286.810 222.799 C 286.546 222.481,285.816 221.986,285.187 221.699 C 284.559 221.412,283.210 220.666,282.189 220.042 C 281.169 219.417,279.917 218.711,279.406 218.472 C 278.896 218.234,278.220 217.825,277.904 217.563 C 277.587 217.302,276.209 216.494,274.842 215.768 C 273.474 215.042,271.562 213.955,270.593 213.352 C 269.624 212.749,268.247 211.961,267.532 211.601 C 266.818 211.241,266.144 210.827,266.035 210.682 C 265.926 210.537,265.258 210.156,264.551 209.834 C 263.844 209.513,262.430 208.731,261.410 208.096 C 258.775 206.458,256.765 205.304,255.444 204.671 C 254.815 204.371,254.085 203.864,253.821 203.546 C 253.557 203.229,253.180 202.968,252.983 202.968 C 252.660 202.968,250.071 201.547,246.439 199.375 C 245.693 198.930,244.475 198.226,243.731 197.811 C 239.125 195.241,235.286 185.122,237.769 182.093 C 237.977 181.840,238.337 180.920,238.570 180.049 C 239.037 178.301,242.649 174.405,244.699 173.438 C 245.319 173.146,246.611 172.449,247.571 171.889 C 248.530 171.330,250.760 170.037,252.525 169.017 C 254.291 167.996,256.344 166.796,257.088 166.350 C 258.734 165.362,260.179 164.521,262.566 163.159 C 263.563 162.591,265.046 161.724,265.863 161.233 C 266.679 160.742,267.973 160.062,268.738 159.722 C 269.504 159.382,270.130 158.980,270.130 158.829 C 270.130 158.678,270.756 158.275,271.521 157.933 C 272.287 157.592,273.581 156.899,274.397 156.394 C 275.213 155.889,276.549 155.132,277.365 154.712 C 278.182 154.293,279.601 153.464,280.519 152.870 C 282.260 151.745,283.717 150.913,286.341 149.548 C 287.196 149.103,288.093 148.501,288.335 148.210 C 288.576 147.919,288.966 147.681,289.202 147.681 C 289.438 147.681,290.044 147.389,290.548 147.032 C 294.452 144.269,299.778 143.685,304.082 145.546 M209.276 164.221 C 211.623 166.581,214.128 169.065,214.842 169.742 C 215.557 170.418,218.479 173.340,221.336 176.234 L 226.531 181.498 226.646 185.647 C 226.779 190.464,227.024 189.979,221.958 194.936 C 220.259 196.599,216.418 200.440,213.423 203.473 C 204.378 212.631,205.648 211.812,200.439 211.848 C 195.538 211.881,196.602 212.623,185.231 201.235 C 174.494 190.483,174.397 190.347,174.397 186.002 C 174.397 181.425,174.145 181.783,184.954 171.058 C 190.405 165.649,195.139 160.932,195.474 160.575 C 195.989 160.026,196.773 159.926,200.546 159.928 L 205.009 159.930 209.276 164.221 M199.023 176.872 C 197.858 177.111,191.230 184.160,190.990 185.413 C 190.724 186.805,191.133 187.473,194.214 190.681 C 200.052 196.761,200.466 196.804,205.573 191.866 C 211.336 186.293,211.295 185.695,204.699 179.145 C 203.507 177.962,202.255 176.992,201.916 176.989 C 201.576 176.987,200.965 176.922,200.557 176.847 C 200.148 176.771,199.458 176.783,199.023 176.872 M178.372 216.306 C 181.958 216.986,185.884 220.336,187.837 224.381 L 189.054 226.902 189.054 257.143 L 189.054 287.384 187.978 289.796 C 186.387 293.363,182.186 297.588,180.230 297.588 C 179.859 297.588,179.066 297.841,178.469 298.150 C 173.707 300.612,165.692 296.904,162.419 290.724 L 161.240 288.497 161.047 271.614 L 160.853 254.731 159.771 254.809 C 159.176 254.852,158.591 255.035,158.472 255.216 C 158.353 255.396,157.809 255.779,157.262 256.065 C 156.715 256.352,154.825 257.421,153.061 258.442 C 147.335 261.754,146.396 262.288,145.455 262.768 C 144.944 263.028,144.026 263.580,143.414 263.996 C 141.620 265.213,140.904 265.642,139.332 266.440 C 138.516 266.854,137.180 267.600,136.364 268.098 C 128.867 272.666,122.570 272.120,116.993 266.419 C 113.877 263.234,112.197 255.742,113.982 252.998 C 114.291 252.522,114.740 251.537,114.978 250.808 C 115.790 248.332,119.661 245.152,125.603 242.083 C 126.215 241.766,127.327 241.143,128.074 240.698 C 130.102 239.490,133.617 237.414,134.879 236.680 C 135.492 236.324,136.577 235.754,137.291 235.414 C 138.006 235.074,138.673 234.682,138.776 234.544 C 138.961 234.291,144.281 231.202,146.382 230.127 C 146.994 229.814,147.585 229.425,147.694 229.264 C 147.803 229.103,148.484 228.724,149.208 228.422 C 149.931 228.119,150.739 227.612,151.003 227.294 C 151.266 226.976,151.728 226.716,152.029 226.716 C 152.330 226.716,153.102 226.341,153.746 225.882 C 154.849 225.096,155.591 224.656,158.256 223.207 C 158.868 222.874,160.156 222.150,161.117 221.598 C 162.078 221.045,163.998 219.944,165.384 219.150 C 166.770 218.357,168.155 217.491,168.463 217.226 C 169.682 216.178,175.063 215.679,178.372 216.306 M231.168 216.881 C 231.679 217.160,232.603 217.627,233.223 217.918 C 233.842 218.210,235.625 219.223,237.186 220.170 C 238.746 221.117,240.201 221.892,240.419 221.892 C 240.638 221.892,240.816 222.041,240.816 222.223 C 240.816 222.405,241.442 222.830,242.208 223.167 C 242.973 223.504,244.518 224.348,245.640 225.043 C 246.763 225.737,248.182 226.572,248.794 226.897 C 249.406 227.222,250.502 227.801,251.228 228.185 C 251.955 228.568,252.768 229.146,253.036 229.469 C 253.304 229.792,253.680 230.056,253.872 230.056 C 254.175 230.056,259.562 233.026,263.752 235.503 C 265.693 236.650,267.475 237.643,269.273 238.579 C 270.127 239.023,271.025 239.625,271.266 239.916 C 271.507 240.207,271.993 240.445,272.344 240.445 C 272.696 240.445,273.286 240.779,273.655 241.187 C 274.024 241.596,274.538 241.929,274.797 241.929 C 275.056 241.929,275.764 242.347,276.370 242.857 C 276.977 243.367,277.699 243.786,277.976 243.787 C 279.676 243.795,284.023 247.758,285.890 251.004 C 287.650 254.063,287.508 264.193,285.704 264.193 C 285.506 264.193,285.343 264.465,285.343 264.797 C 285.343 265.996,281.524 269.149,278.772 270.223 C 274.529 271.879,268.693 271.273,265.677 268.863 C 265.371 268.618,264.703 268.212,264.193 267.960 C 263.683 267.709,262.430 267.008,261.410 266.404 C 260.390 265.799,259.137 265.127,258.627 264.910 C 258.117 264.692,257.365 264.219,256.957 263.857 C 256.549 263.496,255.673 262.986,255.009 262.724 C 254.346 262.462,253.803 262.101,253.803 261.922 C 253.803 261.742,253.628 261.596,253.415 261.596 C 253.054 261.596,249.230 259.528,246.069 257.625 C 245.323 257.175,244.295 256.601,243.785 256.348 C 243.275 256.095,242.486 255.561,242.033 255.162 C 240.130 253.486,240.074 253.933,240.074 270.767 C 240.074 290.261,240.106 290.104,235.178 294.952 C 232.019 298.060,227.399 299.626,223.933 298.764 C 221.820 298.238,218.723 297.021,217.985 296.425 C 216.757 295.434,214.471 293.070,214.471 292.791 C 214.471 292.635,214.158 292.146,213.776 291.705 C 212.064 289.731,211.874 286.269,211.874 257.090 C 211.875 224.119,211.903 223.888,216.420 219.808 C 220.250 216.350,227.544 214.902,231.168 216.881 " stroke="none" fill="#fbfcfc" fill-rule="evenodd"></path></g></svg>